<svg xmlns="http://www.w3.org/2000/svg" viewBox="0 0 64 64">
  <defs>
    <linearGradient id="bh" x1="32" y1="14" x2="32" y2="52" gradientUnits="userSpaceOnUse">
      <stop offset="0" stop-color="#62d6c3"/>
      <stop offset="0.55" stop-color="#3f6fc4"/>
      <stop offset="1" stop-color="#7a4fb8"/>
    </linearGradient>
    <clipPath id="hc">
      <path d="M32 51C18 42 12.5 34.5 12.5 27 12.5 21 16.7 17 21.8 17c3.6 0 6.7 1.9 9.1 5.4 2.4-3.5 5.5-5.4 9.1-5.4C45.3 17 49.5 21 49.5 27 49.5 34.5 44 42 32 51z"/>
    </clipPath>
  </defs>
  <rect width="64" height="64" rx="14" fill="#0d2b3a"/>
  <g fill="#eaf6f4">
    <path d="M24 12l1 2 2 1-2 1-1 2-1-2-2-1 2-1z"/>
    <path d="M41 14l.8 1.6 1.6.8-1.6.8-.8 1.6-.8-1.6-1.6-.8 1.6-.8z"/>
    <circle cx="16" cy="34" r="1"/><circle cx="48" cy="36" r="1"/>
  </g>
  <path d="M32 51C18 42 12.5 34.5 12.5 27 12.5 21 16.7 17 21.8 17c3.6 0 6.7 1.9 9.1 5.4 2.4-3.5 5.5-5.4 9.1-5.4C45.3 17 49.5 21 49.5 27 49.5 34.5 44 42 32 51z"
        fill="url(#bh)" stroke="#ffffff" stroke-width="3" stroke-linejoin="round"/>
  <g clip-path="url(#hc)" fill="none" stroke="#eef7f5" stroke-width="1.6" stroke-linecap="round" opacity="0.85">
    <path d="M32 22v28"/>
    <path d="M27 26c-3.4 0-5.2 2-5.2 4.2 0 2 1.8 2.9 1.8 5.1"/>
    <path d="M37 26c3.4 0 5.2 2 5.2 4.2 0 2-1.8 2.9-1.8 5.1"/>
  </g>
</svg>
