<svg xmlns="http://www.w3.org/2000/svg" viewBox="0 0 64 64" role="img" aria-label="Dr. Raychel Powers brain-heart logo">
  <defs>
    <linearGradient id="bh" x1="32" y1="12" x2="32" y2="56" gradientUnits="userSpaceOnUse">
      <stop offset="0" stop-color="#62d6c3"/>
      <stop offset="0.55" stop-color="#3f6fc4"/>
      <stop offset="1" stop-color="#7a4fb8"/>
    </linearGradient>
    <clipPath id="heartClip">
      <path d="M32 55C15 44 8.5 34.5 8.5 24.8 8.5 17.2 13.8 12 20.4 12c4.7 0 8.6 2.5 11.6 7 3-4.5 6.9-7 11.6-7 6.6 0 11.9 5.2 11.9 12.8C55.5 34.5 49 44 32 55z"/>
    </clipPath>
  </defs>
  <!-- heart body -->
  <path d="M32 55C15 44 8.5 34.5 8.5 24.8 8.5 17.2 13.8 12 20.4 12c4.7 0 8.6 2.5 11.6 7 3-4.5 6.9-7 11.6-7 6.6 0 11.9 5.2 11.9 12.8C55.5 34.5 49 44 32 55z"
        fill="url(#bh)" stroke="#ffffff" stroke-width="3" stroke-linejoin="round"/>
  <!-- brain gyri suggested with soft white strokes, clipped to the heart -->
  <g clip-path="url(#heartClip)" fill="none" stroke="#eef7f5" stroke-width="1.7" stroke-linecap="round" opacity="0.85">
    <path d="M32 19v32"/>
    <path d="M26 23c-4 0-6 2.4-6 5 0 2.4 2 3.4 2 6 0 2.4-2.4 3-2.4 5.6"/>
    <path d="M38 23c4 0 6 2.4 6 5 0 2.4-2 3.4-2 6 0 2.4 2.4 3 2.4 5.6"/>
    <path d="M26 26c-2.2.4-3 1.8-2.4 3.6"/>
    <path d="M38 26c2.2.4 3 1.8 2.4 3.6"/>
    <path d="M27 34c-1.8.2-2.6 1.6-2 3.2"/>
    <path d="M37 34c1.8.2 2.6 1.6 2 3.2"/>
  </g>
  <!-- sparkles -->
  <g fill="#eef7f5">
    <path d="M24 9.5l.9 1.9 1.9.9-1.9.9-.9 1.9-.9-1.9L21 12.3l1.9-.9z"/>
    <path d="M41 11l.7 1.5 1.5.7-1.5.7-.7 1.5-.7-1.5L38.6 14l1.5-.7z"/>
  </g>
</svg>
